<svg width="1991" height="500" viewBox="0 0 1991 500" fill="none" xmlns="http://www.w3.org/2000/svg">
<mask id="path-1-outside-1_1_7" maskUnits="userSpaceOnUse" x="765" y="175" width="253" height="226" fill="black">
<rect fill="white" x="765" y="175" width="253" height="226"/>
<path d="M971.537 248.894C968.887 247.988 966.217 247.145 963.529 246.365C963.975 244.551 964.386 242.726 964.763 240.892C970.827 211.403 966.862 187.646 953.33 179.825C940.374 172.321 919.125 180.141 897.69 198.84C895.582 200.685 893.518 202.585 891.496 204.541C890.149 203.242 888.767 201.97 887.35 200.727C864.884 180.732 842.365 172.31 828.849 180.157C815.893 187.677 812.042 210.009 817.499 237.958C818.045 240.722 818.658 243.474 819.339 246.214C816.152 247.121 813.073 248.09 810.13 249.117C783.823 258.316 767 272.739 767 287.696C767 303.15 785.056 318.646 812.488 328.042C814.713 328.799 816.959 329.502 819.225 330.152C818.489 333.085 817.838 336.051 817.271 339.05C812.089 366.518 816.131 388.321 829.062 395.795C842.417 403.511 864.822 395.582 886.661 376.458C888.389 374.945 890.116 373.347 891.844 371.664C894.027 373.775 896.273 375.824 898.581 377.811C919.726 396.043 940.607 403.408 953.517 395.914C966.862 388.171 971.2 364.746 965.566 336.246C965.134 334.07 964.637 331.848 964.074 329.582C965.649 329.115 967.192 328.633 968.702 328.136C997.206 318.667 1015.78 303.358 1015.78 287.711C1015.76 272.682 998.403 258.165 971.537 248.894ZM904.681 206.873C923.043 190.854 940.208 184.531 948.033 189.05C956.362 193.865 959.601 213.279 954.367 238.741C954.021 240.399 953.648 242.053 953.247 243.701C942.289 241.208 931.177 239.449 919.985 238.435C913.577 229.204 906.553 220.417 898.959 212.133C900.818 210.33 902.722 208.576 904.671 206.873H904.681ZM840.453 300.476C842.702 304.829 845.053 309.129 847.507 313.376C850.005 317.708 852.608 321.977 855.317 326.182C847.616 325.345 839.963 324.111 832.389 322.487C834.586 315.376 837.292 307.991 840.453 300.476ZM840.453 275.429C837.343 268.074 834.711 260.84 832.55 253.853C839.65 252.262 847.216 250.962 855.104 249.977C852.461 254.102 849.918 258.288 847.475 262.534C845.033 266.781 842.687 271.079 840.437 275.429H840.453ZM846.102 287.955C849.377 281.124 852.905 274.425 856.685 267.857C860.461 261.292 864.481 254.878 868.745 248.614C876.146 248.054 883.733 247.759 891.398 247.759C899.063 247.759 906.697 248.054 914.093 248.619C918.311 254.869 922.307 261.261 926.08 267.795C929.853 274.328 933.427 280.996 936.803 287.799C933.472 294.654 929.906 301.381 926.106 307.981C922.336 314.545 918.363 320.978 914.186 327.281C906.801 327.799 899.156 328.084 891.382 328.084C883.609 328.084 876.109 327.84 868.859 327.369C864.564 321.084 860.511 314.642 856.7 308.043C852.89 301.444 849.352 294.748 846.087 287.955H846.102ZM935.305 313.303C937.81 308.957 940.215 304.553 942.519 300.093C945.678 307.255 948.467 314.576 950.874 322.025C943.21 323.751 935.462 325.074 927.661 325.99C930.293 321.813 932.842 317.584 935.305 313.303ZM942.416 275.434C940.121 271.063 937.736 266.744 935.258 262.477C932.84 258.269 930.319 254.113 927.697 250.008C935.632 251.013 943.245 252.35 950.381 253.983C948.087 261.262 945.428 268.421 942.416 275.434ZM891.502 219.747C896.677 225.401 901.563 231.314 906.143 237.461C896.347 236.994 886.545 236.994 876.736 237.461C881.572 231.066 886.521 225.131 891.502 219.747ZM834.198 189.366C842.521 184.536 860.924 191.439 880.323 208.682C881.561 209.786 882.81 210.941 884.054 212.139C876.422 220.421 869.348 229.201 862.878 238.42C851.711 239.426 840.621 241.157 829.678 243.602C829.046 241.059 828.476 238.499 827.968 235.922C823.278 211.962 826.382 193.901 834.198 189.366ZM822.065 319.89C819.992 319.299 817.945 318.658 815.924 317.967C803.796 313.821 793.779 308.411 786.901 302.518C780.744 297.237 777.624 291.966 777.624 287.696C777.624 278.621 791.13 267.043 813.654 259.191C816.483 258.207 819.337 257.307 822.215 256.491C825.561 267.242 829.612 277.759 834.343 287.976C829.555 298.333 825.454 308.994 822.065 319.89ZM879.659 368.436C870.004 376.894 860.333 382.89 851.808 385.911C844.148 388.622 838.048 388.7 834.363 386.569C826.517 382.035 823.252 364.523 827.704 341.035C828.232 338.271 828.837 335.507 829.518 332.743C840.57 335.124 851.771 336.75 863.044 337.609C869.577 346.876 876.71 355.706 884.396 364.041C882.852 365.559 881.271 367.021 879.659 368.436ZM891.797 356.402C886.76 350.955 881.732 344.927 876.83 338.449C881.594 338.636 886.445 338.729 891.382 338.729C896.451 338.729 901.468 338.62 906.412 338.397C901.849 344.643 896.971 350.652 891.797 356.402ZM956.331 371.219C954.849 379.221 951.869 384.559 948.184 386.694C940.342 391.244 923.577 385.331 905.5 369.736C903.427 367.954 901.354 366.041 899.244 364.036C906.781 355.668 913.747 346.803 920.094 337.501C931.429 336.54 942.685 334.8 953.781 332.292C954.289 334.344 954.738 336.355 955.128 338.325C957.621 350.918 957.979 362.31 956.331 371.219ZM965.349 318.024C963.991 318.475 962.591 318.911 961.171 319.336C957.692 308.535 953.483 297.983 948.572 287.753C953.299 277.659 957.343 267.26 960.679 256.626C963.224 257.367 965.696 258.145 968.075 258.969C991.096 266.908 1005.14 278.663 1005.14 287.696C1005.14 297.335 989.971 309.846 965.349 318.024Z"/>
</mask>
<g mask="url(#path-1-outside-1_1_7)">
<path fill-rule="evenodd" clip-rule="evenodd" d="M162.041 38.7592C162.099 38.9767 162.129 39.201 162.13 39.4264V74.4524C162.13 74.9019 162.011 75.3435 161.786 75.7325C161.561 76.1216 161.237 76.4442 160.847 76.6678L131.462 93.5935V127.141C131.462 128.054 130.977 128.897 130.186 129.357L68.8474 164.683C68.707 164.763 68.5538 164.814 68.4007 164.868C68.3432 164.887 68.289 164.922 68.2284 164.938C67.7996 165.051 67.3489 165.051 66.9201 164.938C66.8499 164.919 66.7861 164.881 66.7191 164.855C66.5787 164.804 66.4319 164.76 66.2979 164.683L4.97219 129.357C4.58261 129.133 4.2589 128.81 4.0337 128.421C3.8085 128.032 3.68976 127.591 3.68945 127.141L3.68945 22.0634C3.68945 21.8336 3.72136 21.6101 3.7788 21.393C3.79794 21.3196 3.84262 21.2526 3.86814 21.1791C3.91601 21.0451 3.96068 20.9078 4.03088 20.7833C4.07874 20.7003 4.14894 20.6333 4.20638 20.5566C4.27977 20.4545 4.34678 20.3491 4.43293 20.2598C4.50632 20.1863 4.60205 20.1321 4.68501 20.0682C4.77755 19.9916 4.86051 19.9086 4.96581 19.848L35.6334 2.18492C36.0217 1.96139 36.4618 1.84375 36.9098 1.84375C37.3578 1.84375 37.7979 1.96139 38.1862 2.18492L68.8506 19.848H68.857C68.9591 19.9118 69.0452 19.9916 69.1378 20.065C69.2207 20.1289 69.3133 20.1863 69.3867 20.2566C69.476 20.3491 69.5398 20.4545 69.6164 20.5566C69.6707 20.6333 69.7441 20.7003 69.7887 20.7833C69.8621 20.911 69.9036 21.0451 69.9546 21.1791C69.9802 21.2526 70.0248 21.3196 70.044 21.3962C70.1027 21.6138 70.1328 21.8381 70.1333 22.0634V87.6941L95.686 72.9743V39.4232C95.686 39.1997 95.7179 38.9731 95.7753 38.7592C95.7977 38.6826 95.8391 38.6155 95.8647 38.5421C95.9157 38.408 95.9604 38.2708 96.0306 38.1463C96.0785 38.0633 96.1487 37.9962 96.2029 37.9196C96.2795 37.8175 96.3433 37.7121 96.4326 37.6227C96.506 37.5493 96.5986 37.495 96.6815 37.4312C96.7773 37.3546 96.8602 37.2716 96.9623 37.2109L127.633 19.5479C128.021 19.324 128.461 19.2062 128.91 19.2062C129.358 19.2062 129.798 19.324 130.186 19.5479L160.85 37.2109C160.959 37.2748 161.042 37.3546 161.137 37.428C161.217 37.4918 161.31 37.5493 161.383 37.6195C161.473 37.7121 161.536 37.8175 161.613 37.9196C161.67 37.9962 161.741 38.0633 161.785 38.1463C161.859 38.2708 161.9 38.408 161.951 38.5421C161.98 38.6155 162.021 38.6826 162.041 38.7592ZM157.018 72.9743V43.8477L146.287 50.028L131.462 58.5675V87.6941L157.021 72.9743H157.018ZM126.354 125.663V96.5176L111.771 104.85L70.1301 128.626V158.046L126.354 125.663ZM8.80126 26.4848V125.663L65.0183 158.043V128.629L35.6494 112L35.6398 111.994L35.6271 111.988C35.5281 111.93 35.4452 111.847 35.3526 111.777C35.2729 111.713 35.1803 111.662 35.1101 111.592L35.1038 111.582C35.0208 111.502 34.9634 111.403 34.8932 111.314C34.8293 111.228 34.7528 111.154 34.7017 111.065L34.6985 111.055C34.6411 110.96 34.606 110.845 34.5645 110.736C34.523 110.64 34.4688 110.551 34.4432 110.449C34.4113 110.328 34.4049 110.197 34.3922 110.072C34.3794 109.976 34.3539 109.881 34.3539 109.785V109.778V41.2045L19.5322 32.6619L8.80126 26.4848ZM36.913 7.35007L11.3635 22.0634L36.9066 36.7768L62.4529 22.0602L36.9066 7.35007H36.913ZM50.1999 99.1736L65.0215 90.6374V26.4848L54.2906 32.6651L39.4657 41.2045V105.357L50.1999 99.1736ZM128.91 24.713L103.363 39.4264L128.91 54.1397L154.453 39.4232L128.91 24.713ZM126.354 58.5675L111.529 50.028L100.798 43.8477V72.9743L115.619 81.5106L126.354 87.6941V58.5675ZM67.5711 124.205L105.042 102.803L123.772 92.109L98.2451 77.4053L68.8538 94.3341L42.0663 109.762L67.5711 124.205Z" fill="#FF2D20"/>
</g>
</svg>
